<svg width="215" height="131" viewBox="0 0 215 131" fill="none" xmlns="http://www.w3.org/2000/svg">
<path d="M49.1627 18.2788C53.581 18.2788 57.1627 14.6971 57.1627 10.2788C57.1627 5.86053 53.581 2.27881 49.1627 2.27881V18.2788ZM14.9809 15.8409L9.93201 9.63536L14.9809 15.8409ZM0.144531 28.8192V36.8192H16.1445V28.8192H0.144531ZM49.1627 2.27881H30.9324V18.2788H49.1627V2.27881ZM30.9324 10.2788C30.9324 2.27881 30.93 2.27881 30.9275 2.27881C30.9266 2.27881 30.9242 2.27881 30.9224 2.27881C30.9189 2.27882 30.9153 2.27883 30.9116 2.27883C30.904 2.27885 30.8959 2.27888 30.8872 2.27892C30.8699 2.27901 30.8502 2.27914 30.8282 2.27936C30.7844 2.27978 30.7314 2.28052 30.6696 2.28174C30.5462 2.28419 30.3876 2.28861 30.1967 2.29651C29.8154 2.31228 29.3022 2.34205 28.6811 2.39821C27.445 2.50995 25.7467 2.72925 23.7873 3.16403C19.9528 4.01488 14.6545 5.79311 9.93201 9.63536L20.0298 22.0465C22.1436 20.3266 24.8211 19.3238 27.2533 18.7841C28.4272 18.5236 29.435 18.3953 30.1216 18.3332C30.4618 18.3025 30.7142 18.2888 30.858 18.2828C30.9297 18.2799 30.9736 18.2789 30.9871 18.2786C30.9938 18.2785 30.9928 18.2785 30.9838 18.2786C30.9793 18.2786 30.9728 18.2787 30.9643 18.2787C30.96 18.2788 30.9552 18.2788 30.9499 18.2788C30.9472 18.2788 30.9444 18.2788 30.9415 18.2788C30.9401 18.2788 30.9378 18.2788 30.9371 18.2788C30.9347 18.2788 30.9324 18.2788 30.9324 10.2788ZM9.93201 9.63536C6.2079 12.6653 3.65249 15.9444 2.08528 19.4367C0.516396 22.9328 0.144531 26.1836 0.144531 28.8192H16.1445C16.1445 27.7467 16.286 26.8718 16.6828 25.9875C17.0813 25.0994 17.9441 23.7434 20.0298 22.0465L9.93201 9.63536Z" fill="white"/>
<path d="M49.1533 78.6433L30.9206 78.6425C30.9206 78.6425 21.806 78.6429 14.9691 74.0863C8.74256 69.9365 8.10102 64.1206 8.12685 60.4126" stroke="white" stroke-width="16" stroke-linecap="round"/>
<path d="M8.13525 51.2972V37.6245" stroke="white" stroke-width="16" stroke-linecap="square"/>
<path d="M8.13525 44.6331C9.95828 44.6331 30.1635 44.6331 42.317 44.6331" stroke="white" stroke-width="16" stroke-linecap="round"/>
<path d="M80.9213 10.2788L103.709 10.2788C112.824 10.2788 128.776 17.1152 128.776 33.0667C128.776 46.7394 115.103 55.8545 103.709 55.8545M103.709 55.8545C99.1516 55.8545 77.1233 55.8545 71.8062 55.8545M103.709 55.8545C117.382 58.1333 126.497 71.806 128.776 80.9212M96.8728 33.0667H71.8062" stroke="white" stroke-width="16" stroke-linecap="round"/>
<circle cx="81.376" cy="78.6423" r="7.70363" fill="white" stroke="white"/>
<path d="M158.4 33.0666V14.8364C158.4 8 161.591 8 165.237 8C168.883 8 175.112 8 183.467 8C199.419 8 206.255 21.6727 206.255 30.7879C206.255 44.4606 199.419 53.5757 183.467 55.8545L165.237 55.8545C162.958 55.8545 158.4 55.8545 158.4 60.4121C158.4 64.0581 158.4 76.3636 158.4 83.1999" stroke="white" stroke-width="16" stroke-linecap="round"/>
<path d="M45 115.846C45 108.086 50.84 101.446 59.44 101.446C62.76 101.446 68.6 102.886 68.6 106.406C68.6 108.486 66.96 109.686 65.24 109.686C64.56 109.686 63.96 109.526 63.44 109.206C62.32 108.526 60.92 108.046 59.52 108.046C55 108.046 52.08 111.646 52.08 115.846C52.08 120.086 55 123.646 59.52 123.646C61.4 123.646 62.72 123.006 63.88 122.206C64.48 121.766 65.12 121.526 65.84 121.526C67.68 121.526 69.24 122.886 69.24 124.886C69.24 128.406 63.28 130.246 59.52 130.246C50.72 130.246 45 123.646 45 115.846ZM74.8406 115.886C74.8406 107.926 81.3206 101.446 89.3606 101.446C97.4006 101.446 103.921 107.926 103.921 115.886C103.921 123.806 97.4006 130.246 89.3606 130.246C81.3206 130.246 74.8406 123.806 74.8406 115.886ZM81.9206 115.886C81.9206 120.126 85.1606 123.606 89.3606 123.606C93.5606 123.606 96.8406 120.126 96.8406 115.886C96.8406 111.606 93.5606 108.086 89.3606 108.086C85.1606 108.086 81.9206 111.606 81.9206 115.886ZM119.367 108.446V114.486H124.367C126.047 114.486 127.407 113.166 127.407 111.486C127.407 109.766 126.047 108.446 124.367 108.446H119.367ZM115.847 101.846H124.447C129.967 101.846 134.447 106.246 134.447 111.726C134.447 115.206 132.607 117.966 129.887 119.686L133.687 124.646C134.167 125.286 134.327 126.006 134.327 126.726C134.327 128.486 132.847 130.246 130.807 130.246C129.727 130.246 128.607 129.726 127.967 128.846L122.207 121.046H119.367V126.726C119.367 128.646 117.887 130.246 115.847 130.246C113.887 130.246 112.327 128.646 112.327 126.726V105.286C112.327 103.366 113.567 101.846 115.847 101.846ZM161.341 108.446H150.301V112.246H159.261C161.701 112.246 162.821 113.926 162.821 115.486C162.821 117.046 161.701 118.686 159.261 118.686H150.301V123.206H161.341C163.781 123.206 164.861 124.966 164.861 126.526C164.861 128.086 163.781 129.846 161.341 129.846H146.781C144.501 129.846 143.261 128.406 143.261 126.286V105.286C143.261 103.366 144.501 101.846 146.781 101.846H161.341C163.781 101.846 164.861 103.606 164.861 105.166C164.861 106.726 163.781 108.446 161.341 108.446Z" fill="#E5892B"/>
</svg>
