<svg width="20" height="20" viewBox="0 0 20 20" fill="none" xmlns="http://www.w3.org/2000/svg">
  <circle cx="10" cy="10" r="10" fill="#008000"/>
  <path fill-rule="evenodd" clip-rule="evenodd" d="M16.3333 5.53555C16.5208 5.72308 16.6261 5.97739 16.6261 6.24255C16.6261 6.50772 16.5208 6.76202 16.3333 6.94955L8.838 14.4449C8.73895 14.544 8.62135 14.6226 8.49192 14.6762C8.36249 14.7298 8.22377 14.7574 8.08367 14.7574C7.94357 14.7574 7.80485 14.7298 7.67542 14.6762C7.54599 14.6226 7.42839 14.544 7.32934 14.4449L3.60534 10.7216C3.50983 10.6293 3.43364 10.519 3.38124 10.397C3.32883 10.275 3.30124 10.1437 3.30009 10.011C3.29893 9.87817 3.32423 9.74649 3.37452 9.6236C3.4248 9.5007 3.49905 9.38905 3.59294 9.29516C3.68683 9.20126 3.79849 9.12701 3.92138 9.07673C4.04428 9.02645 4.17596 9.00115 4.30874 9.0023C4.44152 9.00345 4.57274 9.03104 4.69474 9.08345C4.81675 9.13586 4.92709 9.21204 5.01934 9.30755L8.08334 12.3716L14.9187 5.53555C15.0115 5.44262 15.1218 5.36891 15.2432 5.31861C15.3645 5.26832 15.4946 5.24243 15.626 5.24243C15.7574 5.24243 15.8875 5.26832 16.0088 5.31861C16.1302 5.36891 16.2405 5.44262 16.3333 5.53555Z" fill="white"/>
  </svg>
  