<svg width="20" height="20" viewBox="0 0 20 20" fill="none" xmlns="http://www.w3.org/2000/svg">
  <g clip-path="url(#clip0_475_7191)">
  <path d="M11.0825 2.62329L18.2775 15.085C18.3872 15.275 18.445 15.4905 18.445 15.7099C18.445 15.9294 18.3872 16.1449 18.2775 16.3349C18.1678 16.525 18.01 16.6828 17.82 16.7925C17.63 16.9022 17.4144 16.96 17.195 16.96H2.80502C2.5856 16.96 2.37005 16.9022 2.18003 16.7925C1.99001 16.6828 1.83222 16.525 1.72251 16.3349C1.61281 16.1449 1.55505 15.9294 1.55505 15.7099C1.55506 15.4905 1.61281 15.275 1.72252 15.085L8.91752 2.62329C9.39835 1.78996 10.6009 1.78996 11.0825 2.62329ZM10 12.5C9.77901 12.5 9.56705 12.5878 9.41077 12.744C9.25449 12.9003 9.16669 13.1123 9.16669 13.3333C9.16669 13.5543 9.25449 13.7663 9.41077 13.9225C9.56705 14.0788 9.77901 14.1666 10 14.1666C10.221 14.1666 10.433 14.0788 10.5893 13.9225C10.7456 13.7663 10.8334 13.5543 10.8334 13.3333C10.8334 13.1123 10.7456 12.9003 10.5893 12.744C10.433 12.5878 10.221 12.5 10 12.5ZM10 6.66662C9.79591 6.66665 9.59891 6.74159 9.44638 6.87722C9.29385 7.01285 9.1964 7.19975 9.17252 7.40246L9.16669 7.49996V10.8333C9.16692 11.0457 9.24825 11.25 9.39406 11.4044C9.53987 11.5589 9.73915 11.6518 9.95118 11.6643C10.1632 11.6767 10.372 11.6077 10.5349 11.4714C10.6978 11.3351 10.8024 11.1417 10.8275 10.9308L10.8334 10.8333V7.49996C10.8334 7.27894 10.7456 7.06698 10.5893 6.9107C10.433 6.75442 10.221 6.66662 10 6.66662Z" fill="#F6C52B"/>
  </g>
  <defs>
  <clipPath id="clip0_475_7191">
  <rect width="20" height="20" fill="white"/>
  </clipPath>
  </defs>
  </svg>
  