<svg width="20" height="20" viewBox="0 0 20 20" fill="none" xmlns="http://www.w3.org/2000/svg">
  <circle cx="10" cy="10" r="10" fill="#FF0000"/>
  <path fill-rule="evenodd" clip-rule="evenodd" d="M6.29871 5.20129C6.15653 5.06881 5.96849 4.99669 5.77419 5.00012C5.57988 5.00355 5.3945 5.08226 5.25709 5.21967C5.11967 5.35708 5.04096 5.54247 5.03753 5.73677C5.03411 5.93107 5.10623 6.11912 5.23871 6.26129L8.95871 9.98129L5.23871 13.7013C5.16502 13.77 5.10592 13.8528 5.06493 13.9448C5.02394 14.0368 5.00189 14.1361 5.00012 14.2368C4.99834 14.3375 5.01686 14.4375 5.05459 14.5309C5.09231 14.6243 5.14845 14.7091 5.21967 14.7803C5.29089 14.8515 5.37572 14.9077 5.46911 14.9454C5.5625 14.9831 5.66253 15.0017 5.76323 14.9999C5.86393 14.9981 5.96325 14.9761 6.05525 14.9351C6.14725 14.8941 6.23005 14.835 6.29871 14.7613L10.0187 11.0413L13.7387 14.7613C13.8074 14.835 13.8902 14.8941 13.9822 14.9351C14.0742 14.9761 14.1735 14.9981 14.2742 14.9999C14.3749 15.0017 14.4749 14.9831 14.5683 14.9454C14.6617 14.9077 14.7465 14.8515 14.8177 14.7803C14.889 14.7091 14.9451 14.6243 14.9828 14.5309C15.0206 14.4375 15.0391 14.3375 15.0373 14.2368C15.0355 14.1361 15.0135 14.0368 14.9725 13.9448C14.9315 13.8528 14.8724 13.77 14.7987 13.7013L11.0787 9.98129L14.7987 6.26129C14.9312 6.11912 15.0033 5.93107 14.9999 5.73677C14.9965 5.54247 14.9177 5.35708 14.7803 5.21967C14.6429 5.08226 14.4575 5.00355 14.2632 5.00012C14.0689 4.99669 13.8809 5.06881 13.7387 5.20129L10.0187 8.92129L6.29871 5.20129Z" fill="white"/>
  </svg>
  