<svg width="20" height="20" viewBox="0 0 20 20" fill="none" xmlns="http://www.w3.org/2000/svg">
  <circle cx="10" cy="10" r="10" fill="#007DD3"/>
  <path d="M9.98336 6.66667C9.61669 6.66667 9.30291 6.53623 9.04203 6.27534C8.78114 6.01445 8.65047 5.70045 8.65003 5.33334C8.64958 4.96623 8.78025 4.65245 9.04203 4.392C9.3038 4.13156 9.61758 4.00089 9.98336 4C10.3491 3.99912 10.6631 4.12978 10.9254 4.392C11.1876 4.65423 11.318 4.968 11.3167 5.33334C11.3154 5.69867 11.1849 6.01267 10.9254 6.27534C10.6658 6.538 10.3518 6.66845 9.98336 6.66667ZM9.98336 16C9.70558 16 9.46958 15.9029 9.27536 15.7087C9.08114 15.5144 8.9838 15.2782 8.98336 15V9C8.98336 8.72222 9.08069 8.48622 9.27536 8.292C9.47002 8.09778 9.70602 8.00045 9.98336 8C10.2607 7.99956 10.4969 8.09689 10.692 8.292C10.8871 8.48711 10.9842 8.72311 10.9834 9V15C10.9834 15.2778 10.8862 15.514 10.692 15.7087C10.4978 15.9033 10.2616 16.0004 9.98336 16Z" fill="white"/>
  </svg>
  